<svg xmlns="http://www.w3.org/2000/svg" viewBox="0 0 128 128">
  <defs>
    <linearGradient id="grad" x1="0%" y1="0%" x2="100%" y2="100%">
      <stop offset="0%" style="stop-color:#667eea"/>
      <stop offset="100%" style="stop-color:#764ba2"/>
    </linearGradient>
  </defs>
  <circle cx="64" cy="64" r="60" fill="url(#grad)"/>
  <path fill="white" d="M64 24C41.9 24 24 41.9 24 64s17.9 40 40 40 40-17.9 40-40S86.1 24 64 24zm-4 71.7c-15.8-2-28-15.4-28-31.7 0-2.5.3-4.9.8-7.2L52 76v4c0 4.4 3.6 8 8 8v7.7zm27.6-10.2c-1-3.2-4-5.5-7.6-5.5h-4V60c0-2.2-1.8-4-4-4H44v-8h8c2.2 0 4-1.8 4-4v-8h8c4.4 0 8-3.6 8-8v-1.6c11.7 4.8 20 16.2 20 29.6 0 8.3-3.2 15.9-8.4 21.5z"/>
</svg>